error_07_fix_ms.ufo
<glyph name="ety001_cid02472_H" format="1">
  <advance width="1000"/>
  <outline>
    <contour>
      <point x="777" y="812" type="line"/>
      <point x="110" y="812" type="line"/>
      <point x="110" y="704" type="line"/>
      <point x="777" y="704" type="line"/>
    </contour>
    <contour>
      <point x="890" y="810" type="curve"/>
      <point x="734" y="810" type="line"/>
      <point x="734" y="797" type="line"/>
      <point x="730" y="725"/>
      <point x="725" y="693"/>
      <point x="712" y="684" type="curve"/>
      <point x="702" y="677"/>
      <point x="691" y="676"/>
      <point x="674" y="676" type="curve"/>
      <point x="651" y="676"/>
      <point x="604" y="677"/>
      <point x="555" y="680" type="curve"/>
      <point x="577" y="653"/>
      <point x="595" y="611"/>
      <point x="597" y="580" type="curve"/>
      <point x="657" y="578"/>
      <point x="714" y="579"/>
      <point x="747" y="582" type="curve"/>
      <point x="786" y="584"/>
      <point x="818" y="592"/>
      <point x="844" y="612" type="curve"/>
      <point x="871" y="634"/>
      <point x="882" y="682"/>
      <point x="887" y="770" type="curve"/>
      <point x="889" y="784"/>
      <point x="890" y="810"/>
    </contour>
  </outline>
</glyph>
<glyph name="ety002_cid02750_H" format="1">
  <advance width="1000"/>
  <outline>
    <contour>
      <point x="523" y="333" type="line"/>
      <point x="85" y="333" type="line"/>
      <point x="73" y="211" type="line"/>
      <point x="523" y="211" type="line"/>
    </contour>
    <contour>
      <point x="584" y="332" type="curve"/>
      <point x="475" y="332" type="line"/>
      <point x="475" y="316" type="line"/>
      <point x="475" y="179"/>
      <point x="476" y="135"/>
      <point x="470" y="123" type="curve"/>
      <point x="466" y="115"/>
      <point x="460" y="113"/>
      <point x="452" y="113" type="curve"/>
      <point x="444" y="113"/>
      <point x="437" y="114"/>
      <point x="423" y="116" type="curve"/>
      <point x="436" y="90"/>
      <point x="445" y="49"/>
      <point x="447" y="17" type="curve"/>
      <point x="474" y="17"/>
      <point x="500" y="19"/>
      <point x="516" y="22" type="curve"/>
      <point x="536" y="26"/>
      <point x="552" y="35"/>
      <point x="566" y="54" type="curve"/>
      <point x="582" y="78"/>
      <point x="584" y="145"/>
      <point x="584" y="295" type="curve"/>
      <point x="584" y="308"/>
      <point x="584" y="332"/>
    </contour>
  </outline>
</glyph>
<glyph name="ety003_cid02763_EL" format="1">
  <advance width="1000"/>
  <outline>
    <contour>
      <point x="894" y="577" type="line"/>
      <point x="556" y="577" type="line"/>
      <point x="556" y="548" type="line"/>
      <point x="894" y="548" type="line"/>
    </contour>
    <contour>
      <point x="911" y="578" type="curve"/>
      <point x="881" y="578" type="line"/>
      <point x="881" y="571" type="line"/>
      <point x="867" y="163"/>
      <point x="849" y="21"/>
      <point x="819" y="-13" type="curve"/>
      <point x="811" y="-24"/>
      <point x="800" y="-26"/>
      <point x="782" y="-25" type="curve"/>
      <point x="764" y="-25"/>
      <point x="711" y="-25"/>
      <point x="653" y="-20" type="curve"/>
      <point x="659" y="-28"/>
      <point x="662" y="-41"/>
      <point x="663" y="-50" type="curve"/>
      <point x="711" y="-54"/>
      <point x="761" y="-55"/>
      <point x="786" y="-54" type="curve"/>
      <point x="814" y="-54"/>
      <point x="830" y="-48"/>
      <point x="846" y="-29" type="curve"/>
      <point x="880" y="11"/>
      <point x="894" y="142"/>
      <point x="911" y="557" type="curve"/>
      <point x="911" y="563"/>
      <point x="911" y="578"/>
    </contour>
  </outline>
</glyph>
<glyph name="ety004_cid03053_H" format="1">
  <advance width="1000"/>
  <outline>
    <contour>
      <point x="856" y="466" type="line"/>
      <point x="419" y="466" type="line"/>
      <point x="419" y="331" type="line"/>
      <point x="856" y="331" type="line"/>
    </contour>
    <contour>
      <point x="949" y="465" type="curve"/>
      <point x="811" y="465" type="line"/>
      <point x="811" y="441" type="line"/>
      <point x="806" y="182"/>
      <point x="800" y="84"/>
      <point x="783" y="62" type="curve"/>
      <point x="774" y="50"/>
      <point x="764" y="47"/>
      <point x="749" y="47" type="curve"/>
      <point x="730" y="47"/>
      <point x="693" y="48"/>
      <point x="654" y="51" type="curve"/>
      <point x="676" y="15"/>
      <point x="692" y="-42"/>
      <point x="695" y="-82" type="curve"/>
      <point x="744" y="-83"/>
      <point x="791" y="-82"/>
      <point x="821" y="-76" type="curve"/>
      <point x="856" y="-70"/>
      <point x="881" y="-60"/>
      <point x="905" y="-27" type="curve"/>
      <point x="934" y="12"/>
      <point x="942" y="125"/>
      <point x="948" y="410" type="curve"/>
      <point x="949" y="426"/>
      <point x="949" y="465"/>
    </contour>
  </outline>
</glyph>
<glyph name="ety005_cid03752_EL" format="1">
  <advance width="1000"/>
  <outline>
    <contour>
      <point x="873" y="371" type="curve"/>
      <point x="843" y="371" type="line"/>
      <point x="843" y="365" type="line"/>
      <point x="816" y="111"/>
      <point x="789" y="11"/>
      <point x="752" y="-20" type="curve"/>
      <point x="741" y="-30"/>
      <point x="728" y="-31"/>
      <point x="703" y="-31" type="curve"/>
      <point x="677" y="-31"/>
      <point x="603" y="-30"/>
      <point x="525" y="-22" type="curve"/>
      <point x="531" y="-31"/>
      <point x="534" y="-43"/>
      <point x="535" y="-52" type="curve"/>
      <point x="607" y="-58"/>
      <point x="676" y="-60"/>
      <point x="708" y="-59" type="curve"/>
      <point x="740" y="-58"/>
      <point x="758" y="-55"/>
      <point x="775" y="-38" type="curve"/>
      <point x="817" y="-2"/>
      <point x="842" y="97"/>
      <point x="871" y="351" type="curve"/>
      <point x="872" y="357"/>
      <point x="873" y="371"/>
    </contour>
    <contour>
      <point x="855" y="370" type="line"/>
      <point x="188" y="370" type="line"/>
      <point x="180" y="340" type="line"/>
      <point x="855" y="340" type="line"/>
    </contour>
  </outline>
</glyph>
<glyph name="ety006_cid03802_H" format="1">
  <advance width="1000"/>
  <outline>
    <contour>
      <point x="862" y="698" type="line"/>
      <point x="525" y="698" type="line"/>
      <point x="460" y="567" type="line"/>
      <point x="862" y="567" type="line"/>
    </contour>
    <contour>
      <point x="958" y="697" type="curve"/>
      <point x="813" y="697" type="line"/>
      <point x="813" y="666" type="line"/>
      <point x="807" y="262"/>
      <point x="799" y="101"/>
      <point x="774" y="69" type="curve"/>
      <point x="763" y="55"/>
      <point x="753" y="50"/>
      <point x="736" y="50" type="curve"/>
      <point x="712" y="50"/>
      <point x="668" y="50"/>
      <point x="619" y="54" type="curve"/>
      <point x="645" y="12"/>
      <point x="664" y="-54"/>
      <point x="666" y="-96" type="curve"/>
      <point x="720" y="-97"/>
      <point x="773" y="-97"/>
      <point x="809" y="-89" type="curve"/>
      <point x="849" y="-81"/>
      <point x="877" y="-68"/>
      <point x="905" y="-25" type="curve"/>
      <point x="942" y="28"/>
      <point x="949" y="190"/>
      <point x="957" y="630" type="curve"/>
      <point x="958" y="648"/>
      <point x="958" y="697"/>
    </contour>
  </outline>
</glyph>
<glyph name="ety007_cid03854_EL" format="1">
  <advance width="1000"/>
  <outline>
    <contour>
      <point x="849" y="419" type="line"/>
      <point x="438" y="419" type="line"/>
      <point x="438" y="389" type="line"/>
      <point x="849" y="389" type="line"/>
    </contour>
    <contour>
      <point x="864" y="418" type="curve"/>
      <point x="834" y="418" type="line"/>
      <point x="834" y="410" type="line"/>
      <point x="819" y="114"/>
      <point x="801" y="6"/>
      <point x="775" y="-21" type="curve"/>
      <point x="767" y="-31"/>
      <point x="758" y="-32"/>
      <point x="740" y="-32" type="curve"/>
      <point x="723" y="-32"/>
      <point x="676" y="-31"/>
      <point x="624" y="-27" type="curve"/>
      <point x="630" y="-35"/>
      <point x="632" y="-47"/>
      <point x="633" y="-56" type="curve"/>
      <point x="677" y="-60"/>
      <point x="722" y="-61"/>
      <point x="746" y="-60" type="curve"/>
      <point x="771" y="-60"/>
      <point x="786" y="-55"/>
      <point x="800" y="-39" type="curve"/>
      <point x="830" y="-6"/>
      <point x="846" y="94"/>
      <point x="863" y="397" type="curve"/>
      <point x="864" y="404"/>
      <point x="864" y="418"/>
    </contour>
  </outline>
</glyph>
<glyph name="ety008_cid03905_EL" format="1">
  <advance width="1000"/>
  <outline>
    <contour>
      <point x="911" y="598" type="line"/>
      <point x="641" y="598" type="line"/>
      <point x="641" y="569" type="line"/>
      <point x="911" y="569" type="line"/>
    </contour>
    <contour>
      <point x="926" y="597" type="curve"/>
      <point x="897" y="597" type="line"/>
      <point x="897" y="588" type="line"/>
      <point x="885" y="171"/>
      <point x="871" y="27"/>
      <point x="848" y="-5" type="curve"/>
      <point x="840" y="-16"/>
      <point x="832" y="-18"/>
      <point x="818" y="-17" type="curve"/>
      <point x="803" y="-17"/>
      <point x="766" y="-17"/>
      <point x="723" y="-15" type="curve"/>
      <point x="728" y="-22"/>
      <point x="731" y="-35"/>
      <point x="732" y="-44" type="curve"/>
      <point x="766" y="-47"/>
      <point x="801" y="-48"/>
      <point x="821" y="-47" type="curve"/>
      <point x="845" y="-46"/>
      <point x="861" y="-40"/>
      <point x="873" y="-22" type="curve"/>
      <point x="903" y="17"/>
      <point x="914" y="144"/>
      <point x="926" y="574" type="curve"/>
      <point x="926" y="581"/>
      <point x="926" y="597"/>
    </contour>
  </outline>
</glyph>
<glyph name="ety009_cid04166_EL" format="1">
  <advance width="1000"/>
  <outline>
    <contour>
      <point x="882" y="227" type="line"/>
      <point x="330" y="227" type="line"/>
      <point x="330" y="197" type="line"/>
      <point x="882" y="197" type="line"/>
    </contour>
    <contour>
      <point x="900" y="226" type="curve"/>
      <point x="869" y="226" type="line"/>
      <point x="869" y="220" type="line"/>
      <point x="858" y="52"/>
      <point x="846" y="-11"/>
      <point x="828" y="-28" type="curve"/>
      <point x="821" y="-36"/>
      <point x="812" y="-37"/>
      <point x="793" y="-36" type="curve"/>
      <point x="776" y="-36"/>
      <point x="721" y="-36"/>
      <point x="664" y="-31" type="curve"/>
      <point x="669" y="-39"/>
      <point x="672" y="-51"/>
      <point x="673" y="-60" type="curve"/>
      <point x="725" y="-64"/>
      <point x="776" y="-65"/>
      <point x="800" y="-64" type="curve"/>
      <point x="825" y="-64"/>
      <point x="839" y="-59"/>
      <point x="852" y="-47" type="curve"/>
      <point x="874" y="-24"/>
      <point x="886" y="36"/>
      <point x="898" y="207" type="curve"/>
      <point x="899" y="213"/>
      <point x="900" y="226"/>
    </contour>
  </outline>
</glyph>
<glyph name="ety010_cid04177_H" format="1">
  <advance width="1000"/>
  <outline>
    <contour>
      <point x="931" y="334" type="curve"/>
      <point x="840" y="334" type="line"/>
      <point x="840" y="315" type="line"/>
      <point x="833" y="117"/>
      <point x="822" y="38"/>
      <point x="809" y="20" type="curve"/>
      <point x="802" y="11"/>
      <point x="796" y="9"/>
      <point x="787" y="9" type="curve"/>
      <point x="775" y="8"/>
      <point x="755" y="9"/>
      <point x="732" y="11" type="curve"/>
      <point x="746" y="-16"/>
      <point x="756" y="-59"/>
      <point x="757" y="-88" type="curve"/>
      <point x="787" y="-88"/>
      <point x="815" y="-88"/>
      <point x="833" y="-84" type="curve"/>
      <point x="855" y="-79"/>
      <point x="871" y="-71"/>
      <point x="887" y="-46" type="curve"/>
      <point x="908" y="-16"/>
      <point x="919" y="73"/>
      <point x="929" y="291" type="curve"/>
      <point x="930" y="304"/>
      <point x="931" y="334"/>
    </contour>
    <contour>
      <point x="869" y="333" type="line"/>
      <point x="548" y="333" type="line"/>
      <point x="548" y="238" type="line"/>
      <point x="869" y="238" type="line"/>
    </contour>
  </outline>
</glyph>
<glyph name="ety011_cid04217_H" format="1">
  <advance width="1000"/>
  <outline>
    <contour>
      <point x="577" y="168" type="line"/>
      <point x="439" y="168" type="line"/>
      <point x="439" y="74" type="line"/>
      <point x="577" y="74" type="line"/>
    </contour>
    <contour>
      <point x="650" y="166" type="curve"/>
      <point x="548" y="166" type="line"/>
      <point x="548" y="152" type="line"/>
      <point x="544" y="64"/>
      <point x="539" y="28"/>
      <point x="531" y="16" type="curve"/>
      <point x="525" y="9"/>
      <point x="520" y="8"/>
      <point x="510" y="8" type="curve"/>
      <point x="500" y="8"/>
      <point x="481" y="8"/>
      <point x="459" y="11" type="curve"/>
      <point x="471" y="-15"/>
      <point x="480" y="-57"/>
      <point x="482" y="-87" type="curve"/>
      <point x="515" y="-89"/>
      <point x="545" y="-88"/>
      <point x="563" y="-85" type="curve"/>
      <point x="583" y="-82"/>
      <point x="602" y="-74"/>
      <point x="617" y="-54" type="curve"/>
      <point x="634" y="-31"/>
      <point x="642" y="21"/>
      <point x="648" y="125" type="curve"/>
      <point x="649" y="139"/>
      <point x="650" y="166"/>
    </contour>
  </outline>
</glyph>
<glyph name="ety012_cid04253_H" format="1">
  <advance width="1000"/>
  <outline>
    <contour>
      <point x="510" y="333" type="line"/>
      <point x="84" y="333" type="line"/>
      <point x="72" y="211" type="line"/>
      <point x="510" y="211" type="line"/>
    </contour>
    <contour>
      <point x="569" y="332" type="curve"/>
      <point x="463" y="332" type="line"/>
      <point x="463" y="316" type="line"/>
      <point x="463" y="179"/>
      <point x="464" y="135"/>
      <point x="458" y="123" type="curve"/>
      <point x="454" y="115"/>
      <point x="448" y="113"/>
      <point x="441" y="113" type="curve"/>
      <point x="433" y="113"/>
      <point x="426" y="114"/>
      <point x="413" y="116" type="curve"/>
      <point x="425" y="90"/>
      <point x="434" y="49"/>
      <point x="436" y="17" type="curve"/>
      <point x="462" y="17"/>
      <point x="487" y="19"/>
      <point x="503" y="22" type="curve"/>
      <point x="523" y="26"/>
      <point x="538" y="35"/>
      <point x="552" y="54" type="curve"/>
      <point x="567" y="78"/>
      <point x="569" y="145"/>
      <point x="569" y="295" type="curve"/>
      <point x="569" y="308"/>
      <point x="569" y="332"/>
    </contour>
  </outline>
</glyph>
<glyph name="ety013_cid04723_EL" format="1">
  <advance width="1000"/>
  <outline>
    <contour>
      <point x="516" y="755" type="line"/>
      <point x="193" y="755" type="line"/>
      <point x="182" y="725" type="line"/>
      <point x="516" y="725" type="line"/>
    </contour>
    <contour>
      <point x="532" y="757" type="curve"/>
      <point x="503" y="757" type="line"/>
      <point x="503" y="750" type="line"/>
      <point x="493" y="547"/>
      <point x="483" y="474"/>
      <point x="468" y="456" type="curve"/>
      <point x="461" y="448"/>
      <point x="454" y="447"/>
      <point x="440" y="447" type="curve"/>
      <point x="427" y="447"/>
      <point x="391" y="447"/>
      <point x="352" y="451" type="curve"/>
      <point x="356" y="442"/>
      <point x="359" y="430"/>
      <point x="360" y="422" type="curve"/>
      <point x="393" y="420"/>
      <point x="428" y="419"/>
      <point x="446" y="420" type="curve"/>
      <point x="468" y="420"/>
      <point x="480" y="425"/>
      <point x="491" y="436" type="curve"/>
      <point x="512" y="461"/>
      <point x="522" y="528"/>
      <point x="531" y="737" type="curve"/>
      <point x="532" y="744"/>
      <point x="532" y="757"/>
    </contour>
  </outline>
</glyph>
<glyph name="ety014_cid04723_EL" format="1">
  <advance width="1000"/>
  <outline>
    <contour>
      <point x="514" y="352" type="line"/>
      <point x="191" y="352" type="line"/>
      <point x="180" y="323" type="line"/>
      <point x="514" y="323" type="line"/>
    </contour>
    <contour>
      <point x="530" y="354" type="curve"/>
      <point x="501" y="354" type="line"/>
      <point x="501" y="347" type="line"/>
      <point x="489" y="112"/>
      <point x="476" y="28"/>
      <point x="457" y="6" type="curve"/>
      <point x="449" y="-3"/>
      <point x="441" y="-4"/>
      <point x="426" y="-4" type="curve"/>
      <point x="410" y="-4"/>
      <point x="366" y="-4"/>
      <point x="318" y="1" type="curve"/>
      <point x="323" y="-8"/>
      <point x="326" y="-19"/>
      <point x="327" y="-28" type="curve"/>
      <point x="368" y="-31"/>
      <point x="410" y="-32"/>
      <point x="430" y="-31" type="curve"/>
      <point x="455" y="-31"/>
      <point x="469" y="-26"/>
      <point x="480" y="-13" type="curve"/>
      <point x="506" y="15"/>
      <point x="517" y="94"/>
      <point x="529" y="334" type="curve"/>
      <point x="530" y="340"/>
      <point x="530" y="354"/>
    </contour>
  </outline>
</glyph>
<glyph name="ety015_cid04797_H" format="1">
  <advance width="1000"/>
  <outline>
    <contour>
      <point x="777" y="371" type="line"/>
      <point x="110" y="371" type="line"/>
      <point x="110" y="282" type="line"/>
      <point x="777" y="282" type="line"/>
    </contour>
    <contour>
      <point x="890" y="369" type="curve"/>
      <point x="734" y="369" type="line"/>
      <point x="734" y="358" type="line"/>
      <point x="730" y="299"/>
      <point x="725" y="273"/>
      <point x="712" y="266" type="curve"/>
      <point x="702" y="260"/>
      <point x="691" y="259"/>
      <point x="674" y="259" type="curve"/>
      <point x="651" y="259"/>
      <point x="604" y="260"/>
      <point x="555" y="263" type="curve"/>
      <point x="577" y="241"/>
      <point x="595" y="206"/>
      <point x="597" y="181" type="curve"/>
      <point x="657" y="179"/>
      <point x="714" y="180"/>
      <point x="747" y="182" type="curve"/>
      <point x="786" y="184"/>
      <point x="818" y="190"/>
      <point x="844" y="207" type="curve"/>
      <point x="871" y="225"/>
      <point x="882" y="264"/>
      <point x="887" y="337" type="curve"/>
      <point x="889" y="348"/>
      <point x="890" y="369"/>
    </contour>
  </outline>
</glyph>
<glyph name="ety016_cid06016_H" format="1">
  <advance width="1000"/>
  <outline>
    <contour>
      <point x="948" y="416" type="curve"/>
      <point x="839" y="416" type="line"/>
      <point x="839" y="403" type="line"/>
      <point x="833" y="317"/>
      <point x="825" y="281"/>
      <point x="815" y="270" type="curve"/>
      <point x="809" y="263"/>
      <point x="802" y="262"/>
      <point x="792" y="262" type="curve"/>
      <point x="780" y="261"/>
      <point x="759" y="262"/>
      <point x="733" y="265" type="curve"/>
      <point x="746" y="242"/>
      <point x="755" y="207"/>
      <point x="757" y="182" type="curve"/>
      <point x="792" y="181"/>
      <point x="826" y="181"/>
      <point x="846" y="184" type="curve"/>
      <point x="869" y="186"/>
      <point x="889" y="192"/>
      <point x="906" y="210" type="curve"/>
      <point x="926" y="231"/>
      <point x="937" y="279"/>
      <point x="945" y="380" type="curve"/>
      <point x="946" y="392"/>
      <point x="948" y="416"/>
    </contour>
    <contour>
      <point x="880" y="415" type="line"/>
      <point x="411" y="415" type="line"/>
      <point x="411" y="345" type="line"/>
      <point x="880" y="345" type="line"/>
    </contour>
  </outline>
</glyph>
<glyph name="ety017_cid07153_H" format="1">
  <advance width="1000"/>
  <outline>
    <contour>
      <point x="823" y="257" type="line"/>
      <point x="156" y="257" type="line"/>
      <point x="156" y="141" type="line"/>
      <point x="823" y="141" type="line"/>
    </contour>
    <contour>
      <point x="939" y="256" type="curve"/>
      <point x="800" y="256" type="line"/>
      <point x="800" y="239" type="line"/>
      <point x="789" y="103"/>
      <point x="773" y="46"/>
      <point x="758" y="30" type="curve"/>
      <point x="749" y="21"/>
      <point x="742" y="19"/>
      <point x="729" y="19" type="curve"/>
      <point x="716" y="19"/>
      <point x="694" y="20"/>
      <point x="667" y="23" type="curve"/>
      <point x="685" y="-8"/>
      <point x="697" y="-57"/>
      <point x="699" y="-92" type="curve"/>
      <point x="741" y="-93"/>
      <point x="778" y="-92"/>
      <point x="802" y="-88" type="curve"/>
      <point x="828" y="-84"/>
      <point x="852" y="-76"/>
      <point x="874" y="-52" type="curve"/>
      <point x="901" y="-23"/>
      <point x="919" y="50"/>
      <point x="935" y="207" type="curve"/>
      <point x="937" y="224"/>
      <point x="939" y="256"/>
    </contour>
  </outline>
</glyph>
<glyph name="ety018_cid07449_EL" format="1">
  <advance width="1000"/>
  <outline>
    <contour>
      <point x="818" y="743" type="line"/>
      <point x="477" y="743" type="line"/>
      <point x="477" y="714" type="line"/>
      <point x="818" y="714" type="line"/>
    </contour>
    <contour>
      <point x="839" y="742" type="curve"/>
      <point x="810" y="742" type="line"/>
      <point x="810" y="732" type="line"/>
      <point x="799" y="201"/>
      <point x="784" y="21"/>
      <point x="756" y="-16" type="curve"/>
      <point x="747" y="-30"/>
      <point x="737" y="-32"/>
      <point x="721" y="-31" type="curve"/>
      <point x="703" y="-31"/>
      <point x="656" y="-31"/>
      <point x="604" y="-27" type="curve"/>
      <point x="610" y="-35"/>
      <point x="612" y="-48"/>
      <point x="613" y="-58" type="curve"/>
      <point x="655" y="-61"/>
      <point x="698" y="-62"/>
      <point x="724" y="-62" type="curve"/>
      <point x="751" y="-61"/>
      <point x="768" y="-54"/>
      <point x="783" y="-32" type="curve"/>
      <point x="818" y="14"/>
      <point x="827" y="175"/>
      <point x="839" y="719" type="curve"/>
      <point x="839" y="724"/>
      <point x="839" y="742"/>
    </contour>
  </outline>
</glyph>
<glyph name="ety019_cid08810_EL" format="1">
  <advance width="1000"/>
  <outline>
    <contour>
      <point x="900" y="688" type="line"/>
      <point x="533" y="688" type="line"/>
      <point x="533" y="659" type="line"/>
      <point x="900" y="659" type="line"/>
    </contour>
    <contour>
      <point x="911" y="687" type="curve"/>
      <point x="881" y="687" type="line"/>
      <point x="881" y="677" type="line"/>
      <point x="875" y="182"/>
      <point x="867" y="16"/>
      <point x="844" y="-16" type="curve"/>
      <point x="835" y="-29"/>
      <point x="827" y="-31"/>
      <point x="813" y="-30" type="curve"/>
      <point x="795" y="-30"/>
      <point x="752" y="-30"/>
      <point x="703" y="-27" type="curve"/>
      <point x="709" y="-35"/>
      <point x="712" y="-48"/>
      <point x="713" y="-58" type="curve"/>
      <point x="751" y="-60"/>
      <point x="791" y="-61"/>
      <point x="816" y="-61" type="curve"/>
      <point x="840" y="-60"/>
      <point x="857" y="-53"/>
      <point x="870" y="-33" type="curve"/>
      <point x="899" y="8"/>
      <point x="904" y="155"/>
      <point x="911" y="664" type="curve"/>
      <point x="911" y="670"/>
      <point x="911" y="687"/>
    </contour>
  </outline>
</glyph>
<glyph name="ety020_cid09221_H" format="1">
  <advance width="1000"/>
  <outline>
    <contour>
      <point x="857" y="388" type="line"/>
      <point x="451" y="388" type="line"/>
      <point x="451" y="310" type="line"/>
      <point x="857" y="310" type="line"/>
    </contour>
    <contour>
      <point x="940" y="383" type="curve"/>
      <point x="821" y="383" type="line"/>
      <point x="821" y="366" type="line"/>
      <point x="818" y="232"/>
      <point x="813" y="182"/>
      <point x="804" y="168" type="curve"/>
      <point x="797" y="160"/>
      <point x="790" y="158"/>
      <point x="779" y="158" type="curve"/>
      <point x="766" y="158"/>
      <point x="743" y="158"/>
      <point x="715" y="161" type="curve"/>
      <point x="729" y="136"/>
      <point x="740" y="94"/>
      <point x="742" y="65" type="curve"/>
      <point x="781" y="63"/>
      <point x="819" y="64"/>
      <point x="841" y="67" type="curve"/>
      <point x="867" y="70"/>
      <point x="889" y="79"/>
      <point x="907" y="101" type="curve"/>
      <point x="927" y="127"/>
      <point x="935" y="192"/>
      <point x="939" y="342" type="curve"/>
      <point x="940" y="356"/>
      <point x="940" y="383"/>
    </contour>
  </outline>
</glyph>
<glyph name="ety021_cid12065_EL" format="1">
  <advance width="1000"/>
  <outline>
    <contour>
      <point x="915" y="663" type="line"/>
      <point x="481" y="663" type="line"/>
      <point x="481" y="633" type="line"/>
      <point x="915" y="633" type="line"/>
    </contour>
    <contour>
      <point x="931" y="664" type="curve"/>
      <point x="902" y="664" type="line"/>
      <point x="902" y="655" type="line"/>
      <point x="881" y="182"/>
      <point x="858" y="15"/>
      <point x="819" y="-25" type="curve"/>
      <point x="809" y="-38"/>
      <point x="797" y="-40"/>
      <point x="776" y="-39" type="curve"/>
      <point x="754" y="-39"/>
      <point x="693" y="-39"/>
      <point x="626" y="-33" type="curve"/>
      <point x="632" y="-41"/>
      <point x="635" y="-54"/>
      <point x="636" y="-63" type="curve"/>
      <point x="691" y="-67"/>
      <point x="750" y="-69"/>
      <point x="780" y="-68" type="curve"/>
      <point x="811" y="-67"/>
      <point x="828" y="-62"/>
      <point x="846" y="-41" type="curve"/>
      <point x="889" y="7"/>
      <point x="909" y="164"/>
      <point x="931" y="641" type="curve"/>
      <point x="931" y="647"/>
      <point x="931" y="664"/>
    </contour>
  </outline>
</glyph>
<glyph name="ety022_cid12518_EL" format="1">
  <advance width="1000"/>
  <outline>
    <contour>
      <point x="890" y="291" type="line"/>
      <point x="448" y="291" type="line"/>
      <point x="448" y="262" type="line"/>
      <point x="890" y="262" type="line"/>
    </contour>
    <contour>
      <point x="911" y="290" type="curve"/>
      <point x="880" y="290" type="line"/>
      <point x="880" y="283" type="line"/>
      <point x="866" y="69"/>
      <point x="851" y="-12"/>
      <point x="830" y="-32" type="curve"/>
      <point x="823" y="-41"/>
      <point x="815" y="-42"/>
      <point x="800" y="-42" type="curve"/>
      <point x="785" y="-42"/>
      <point x="744" y="-41"/>
      <point x="700" y="-37" type="curve"/>
      <point x="705" y="-46"/>
      <point x="708" y="-58"/>
      <point x="709" y="-66" type="curve"/>
      <point x="747" y="-69"/>
      <point x="785" y="-69"/>
      <point x="805" y="-69" type="curve"/>
      <point x="828" y="-68"/>
      <point x="841" y="-65"/>
      <point x="854" y="-52" type="curve"/>
      <point x="879" y="-24"/>
      <point x="893" y="50"/>
      <point x="909" y="271" type="curve"/>
      <point x="910" y="278"/>
      <point x="911" y="290"/>
    </contour>
  </outline>
</glyph>
<glyph name="ety023_cid12749_EL" format="1">
  <advance width="1000"/>
  <outline>
    <contour>
      <point x="589" y="254" type="line"/>
      <point x="409" y="254" type="line"/>
      <point x="403" y="225" type="line"/>
      <point x="589" y="225" type="line"/>
    </contour>
    <contour>
      <point x="610" y="255" type="curve"/>
      <point x="580" y="255" type="line"/>
      <point x="580" y="248" type="line"/>
      <point x="571" y="64"/>
      <point x="561" y="-4"/>
      <point x="545" y="-20" type="curve"/>
      <point x="539" y="-28"/>
      <point x="531" y="-29"/>
      <point x="517" y="-29" type="curve"/>
      <point x="503" y="-29"/>
      <point x="463" y="-29"/>
      <point x="421" y="-25" type="curve"/>
      <point x="426" y="-33"/>
      <point x="428" y="-45"/>
      <point x="429" y="-54" type="curve"/>
      <point x="466" y="-57"/>
      <point x="504" y="-57"/>
      <point x="523" y="-57" type="curve"/>
      <point x="545" y="-56"/>
      <point x="558" y="-52"/>
      <point x="569" y="-40" type="curve"/>
      <point x="589" y="-17"/>
      <point x="599" y="46"/>
      <point x="609" y="235" type="curve"/>
      <point x="610" y="242"/>
      <point x="610" y="255"/>
    </contour>
  </outline>
</glyph>
<glyph name="ety024_cid12772_EL" format="1">
  <advance width="1000"/>
  <outline>
    <contour>
      <point x="863" y="406" type="line"/>
      <point x="390" y="406" type="line"/>
      <point x="390" y="376" type="line"/>
      <point x="863" y="376" type="line"/>
    </contour>
    <contour>
      <point x="885" y="407" type="curve"/>
      <point x="855" y="407" type="line"/>
      <point x="855" y="401" type="line"/>
      <point x="847" y="321"/>
      <point x="840" y="289"/>
      <point x="829" y="279" type="curve"/>
      <point x="824" y="275"/>
      <point x="816" y="274"/>
      <point x="803" y="274" type="curve"/>
      <point x="791" y="274"/>
      <point x="754" y="274"/>
      <point x="716" y="278" type="curve"/>
      <point x="720" y="270"/>
      <point x="723" y="257"/>
      <point x="723" y="249" type="curve"/>
      <point x="758" y="247"/>
      <point x="793" y="246"/>
      <point x="809" y="246" type="curve"/>
      <point x="830" y="247"/>
      <point x="840" y="251"/>
      <point x="851" y="259" type="curve"/>
      <point x="867" y="273"/>
      <point x="874" y="307"/>
      <point x="883" y="388" type="curve"/>
      <point x="884" y="395"/>
      <point x="885" y="407"/>
    </contour>
  </outline>
</glyph>
<glyph name="ety025_cid18287_H" format="1">
  <advance width="1000"/>
  <outline>
    <contour>
      <point x="866" y="788" type="line"/>
      <point x="532" y="788" type="line"/>
      <point x="532" y="686" type="line"/>
      <point x="866" y="686" type="line"/>
    </contour>
    <contour>
      <point x="927" y="787" type="curve"/>
      <point x="798" y="787" type="line"/>
      <point x="798" y="761" type="line"/>
      <point x="795" y="479"/>
      <point x="792" y="375"/>
      <point x="778" y="352" type="curve"/>
      <point x="771" y="339"/>
      <point x="763" y="336"/>
      <point x="749" y="336" type="curve"/>
      <point x="732" y="336"/>
      <point x="700" y="336"/>
      <point x="663" y="340" type="curve"/>
      <point x="677" y="311"/>
      <point x="690" y="264"/>
      <point x="691" y="234" type="curve"/>
      <point x="738" y="232"/>
      <point x="784" y="231"/>
      <point x="814" y="236" type="curve"/>
      <point x="844" y="241"/>
      <point x="872" y="252"/>
      <point x="892" y="285" type="curve"/>
      <point x="916" y="324"/>
      <point x="923" y="428"/>
      <point x="927" y="731" type="curve"/>
      <point x="927" y="748"/>
      <point x="927" y="787"/>
    </contour>
  </outline>
</glyph>
<glyph name="ety026_cid18288_H" format="1">
  <advance width="1000"/>
  <outline>
    <contour>
      <point x="866" y="788" type="line"/>
      <point x="532" y="788" type="line"/>
      <point x="532" y="686" type="line"/>
      <point x="866" y="686" type="line"/>
    </contour>
    <contour>
      <point x="959" y="787" type="curve"/>
      <point x="817" y="787" type="line"/>
      <point x="817" y="760" type="line"/>
      <point x="815" y="496"/>
      <point x="811" y="392"/>
      <point x="796" y="369" type="curve"/>
      <point x="787" y="357"/>
      <point x="779" y="354"/>
      <point x="762" y="354" type="curve"/>
      <point x="742" y="353"/>
      <point x="704" y="354"/>
      <point x="659" y="358" type="curve"/>
      <point x="675" y="327"/>
      <point x="689" y="276"/>
      <point x="690" y="244" type="curve"/>
      <point x="743" y="242"/>
      <point x="797" y="241"/>
      <point x="831" y="246" type="curve"/>
      <point x="865" y="251"/>
      <point x="897" y="262"/>
      <point x="920" y="297" type="curve"/>
      <point x="946" y="337"/>
      <point x="955" y="440"/>
      <point x="958" y="727" type="curve"/>
      <point x="958" y="745"/>
      <point x="959" y="787"/>
    </contour>
  </outline>
</glyph>
<glyph name="ety027_cid18607_H" format="1">
  <advance width="1000"/>
  <outline>
    <contour>
      <point x="781" y="212" type="line"/>
      <point x="506" y="212" type="line"/>
      <point x="506" y="103" type="line"/>
      <point x="781" y="103" type="line"/>
    </contour>
    <contour>
      <point x="891" y="211" type="curve"/>
      <point x="747" y="211" type="line"/>
      <point x="747" y="195" type="line"/>
      <point x="741" y="91"/>
      <point x="732" y="45"/>
      <point x="718" y="32" type="curve"/>
      <point x="708" y="24"/>
      <point x="698" y="22"/>
      <point x="681" y="22" type="curve"/>
      <point x="660" y="22"/>
      <point x="613" y="23"/>
      <point x="567" y="27" type="curve"/>
      <point x="587" y="-4"/>
      <point x="603" y="-52"/>
      <point x="605" y="-87" type="curve"/>
      <point x="661" y="-89"/>
      <point x="715" y="-89"/>
      <point x="746" y="-85" type="curve"/>
      <point x="783" y="-82"/>
      <point x="814" y="-74"/>
      <point x="839" y="-49" type="curve"/>
      <point x="866" y="-22"/>
      <point x="879" y="39"/>
      <point x="888" y="163" type="curve"/>
      <point x="890" y="179"/>
      <point x="891" y="211"/>
    </contour>
  </outline>
</glyph>
<glyph name="ety028_cid18728_H" format="1">
  <advance width="1000"/>
  <outline>
    <contour>
      <point x="861" y="698" type="line"/>
      <point x="523" y="698" type="line"/>
      <point x="457" y="567" type="line"/>
      <point x="861" y="567" type="line"/>
    </contour>
    <contour>
      <point x="958" y="697" type="curve"/>
      <point x="812" y="697" type="line"/>
      <point x="812" y="666" type="line"/>
      <point x="806" y="262"/>
      <point x="798" y="101"/>
      <point x="773" y="69" type="curve"/>
      <point x="762" y="55"/>
      <point x="752" y="50"/>
      <point x="735" y="50" type="curve"/>
      <point x="711" y="50"/>
      <point x="667" y="50"/>
      <point x="617" y="54" type="curve"/>
      <point x="643" y="12"/>
      <point x="663" y="-54"/>
      <point x="665" y="-96" type="curve"/>
      <point x="718" y="-97"/>
      <point x="772" y="-97"/>
      <point x="808" y="-89" type="curve"/>
      <point x="849" y="-81"/>
      <point x="876" y="-68"/>
      <point x="905" y="-25" type="curve"/>
      <point x="941" y="28"/>
      <point x="948" y="190"/>
      <point x="957" y="630" type="curve"/>
      <point x="957" y="648"/>
      <point x="958" y="697"/>
    </contour>
  </outline>
</glyph>
<glyph name="ety029_cid18846_H" format="1">
  <advance width="1000"/>
  <outline>
    <contour>
      <point x="848" y="698" type="line"/>
      <point x="510" y="698" type="line"/>
      <point x="444" y="567" type="line"/>
      <point x="848" y="567" type="line"/>
    </contour>
    <contour>
      <point x="942" y="697" type="curve"/>
      <point x="799" y="697" type="line"/>
      <point x="799" y="666" type="line"/>
      <point x="793" y="262"/>
      <point x="785" y="101"/>
      <point x="760" y="69" type="curve"/>
      <point x="749" y="55"/>
      <point x="739" y="50"/>
      <point x="722" y="50" type="curve"/>
      <point x="698" y="50"/>
      <point x="654" y="50"/>
      <point x="605" y="55" type="curve"/>
      <point x="631" y="13"/>
      <point x="649" y="-51"/>
      <point x="652" y="-93" type="curve"/>
      <point x="705" y="-94"/>
      <point x="758" y="-94"/>
      <point x="794" y="-87" type="curve"/>
      <point x="834" y="-78"/>
      <point x="861" y="-65"/>
      <point x="890" y="-23" type="curve"/>
      <point x="926" y="29"/>
      <point x="933" y="191"/>
      <point x="941" y="631" type="curve"/>
      <point x="942" y="649"/>
      <point x="942" y="697"/>
    </contour>
  </outline>
</glyph>
<glyph name="ety030_cid19367_EL" format="1">
  <advance width="1000"/>
  <outline>
    <contour>
      <point x="932" y="551" type="line"/>
      <point x="654" y="551" type="line"/>
      <point x="654" y="522" type="line"/>
      <point x="932" y="522" type="line"/>
    </contour>
    <contour>
      <point x="953" y="550" type="curve"/>
      <point x="922" y="550" type="line"/>
      <point x="922" y="544" type="line"/>
      <point x="916" y="461"/>
      <point x="909" y="428"/>
      <point x="899" y="419" type="curve"/>
      <point x="893" y="414"/>
      <point x="887" y="413"/>
      <point x="875" y="413" type="curve"/>
      <point x="865" y="413"/>
      <point x="834" y="413"/>
      <point x="801" y="417" type="curve"/>
      <point x="805" y="408"/>
      <point x="808" y="396"/>
      <point x="809" y="388" type="curve"/>
      <point x="836" y="386"/>
      <point x="867" y="385"/>
      <point x="880" y="386" type="curve"/>
      <point x="901" y="386"/>
      <point x="911" y="390"/>
      <point x="920" y="399" type="curve"/>
      <point x="935" y="413"/>
      <point x="943" y="447"/>
      <point x="951" y="531" type="curve"/>
      <point x="952" y="538"/>
      <point x="953" y="550"/>
    </contour>
  </outline>
</glyph>
<glyph name="ety031_cid19682_EL" format="1">
  <advance width="1000"/>
  <outline>
    <contour>
      <point x="906" y="119" type="line"/>
      <point x="420" y="119" type="line"/>
      <point x="420" y="89" type="line"/>
      <point x="906" y="89" type="line"/>
    </contour>
    <contour>
      <point x="924" y="121" type="curve"/>
      <point x="894" y="121" type="line"/>
      <point x="894" y="115" type="line"/>
      <point x="882" y="17"/>
      <point x="871" y="-22"/>
      <point x="857" y="-35" type="curve"/>
      <point x="850" y="-41"/>
      <point x="842" y="-42"/>
      <point x="825" y="-42" type="curve"/>
      <point x="811" y="-42"/>
      <point x="764" y="-42"/>
      <point x="716" y="-37" type="curve"/>
      <point x="721" y="-46"/>
      <point x="724" y="-58"/>
      <point x="725" y="-65" type="curve"/>
      <point x="769" y="-68"/>
      <point x="812" y="-69"/>
      <point x="830" y="-69" type="curve"/>
      <point x="854" y="-68"/>
      <point x="866" y="-65"/>
      <point x="877" y="-56" type="curve"/>
      <point x="897" y="-38"/>
      <point x="909" y="2"/>
      <point x="922" y="102" type="curve"/>
      <point x="923" y="109"/>
      <point x="924" y="121"/>
    </contour>
  </outline>
</glyph>
<glyph name="ety032_cid20199_EL" format="1">
  <advance width="1000"/>
  <outline>
    <contour>
      <point x="353" y="460" type="line"/>
      <point x="167" y="460" type="line"/>
      <point x="167" y="430" type="line"/>
      <point x="353" y="430" type="line"/>
    </contour>
    <contour>
      <point x="368" y="459" type="curve"/>
      <point x="337" y="459" type="line"/>
      <point x="337" y="451" type="line"/>
      <point x="326" y="125"/>
      <point x="313" y="10"/>
      <point x="291" y="-16" type="curve"/>
      <point x="284" y="-26"/>
      <point x="278" y="-27"/>
      <point x="264" y="-27" type="curve"/>
      <point x="250" y="-27"/>
      <point x="216" y="-27"/>
      <point x="178" y="-24" type="curve"/>
      <point x="183" y="-32"/>
      <point x="185" y="-45"/>
      <point x="186" y="-54" type="curve"/>
      <point x="218" y="-56"/>
      <point x="250" y="-57"/>
      <point x="269" y="-56" type="curve"/>
      <point x="291" y="-56"/>
      <point x="305" y="-50"/>
      <point x="317" y="-34" type="curve"/>
      <point x="343" y="-2"/>
      <point x="354" y="101"/>
      <point x="367" y="437" type="curve"/>
      <point x="367" y="444"/>
      <point x="368" y="459"/>
    </contour>
  </outline>
</glyph>
<glyph name="ety033_cid20212_H" format="1">
  <advance width="1000"/>
  <outline>
    <contour>
      <point x="281" y="491" type="line"/>
      <point x="160" y="491" type="line"/>
      <point x="160" y="376" type="line"/>
      <point x="281" y="376" type="line"/>
    </contour>
    <contour>
      <point x="347" y="492" type="curve"/>
      <point x="242" y="492" type="line"/>
      <point x="242" y="470" type="line"/>
      <point x="239" y="178"/>
      <point x="235" y="81"/>
      <point x="224" y="59" type="curve"/>
      <point x="217" y="47"/>
      <point x="211" y="44"/>
      <point x="201" y="45" type="curve"/>
      <point x="188" y="45"/>
      <point x="172" y="45"/>
      <point x="151" y="47" type="curve"/>
      <point x="166" y="18"/>
      <point x="176" y="-27"/>
      <point x="178" y="-59" type="curve"/>
      <point x="210" y="-59"/>
      <point x="239" y="-59"/>
      <point x="259" y="-54" type="curve"/>
      <point x="283" y="-49"/>
      <point x="301" y="-39"/>
      <point x="317" y="-12" type="curve"/>
      <point x="338" y="22"/>
      <point x="342" y="136"/>
      <point x="347" y="446" type="curve"/>
      <point x="347" y="459"/>
      <point x="347" y="492"/>
    </contour>
  </outline>
</glyph>
<glyph name="ety034_cid20690_EL" format="1">
  <advance width="1000"/>
  <outline>
    <contour>
      <point x="883" y="286" type="line"/>
      <point x="521" y="286" type="line"/>
      <point x="521" y="257" type="line"/>
      <point x="883" y="257" type="line"/>
    </contour>
    <contour>
      <point x="906" y="287" type="curve"/>
      <point x="876" y="287" type="line"/>
      <point x="876" y="280" type="line"/>
      <point x="868" y="89"/>
      <point x="861" y="22"/>
      <point x="844" y="4" type="curve"/>
      <point x="838" y="-4"/>
      <point x="829" y="-5"/>
      <point x="813" y="-4" type="curve"/>
      <point x="797" y="-4"/>
      <point x="747" y="-4"/>
      <point x="694" y="1" type="curve"/>
      <point x="700" y="-8"/>
      <point x="703" y="-19"/>
      <point x="704" y="-28" type="curve"/>
      <point x="750" y="-31"/>
      <point x="797" y="-32"/>
      <point x="819" y="-31" type="curve"/>
      <point x="844" y="-31"/>
      <point x="857" y="-26"/>
      <point x="868" y="-14" type="curve"/>
      <point x="889" y="9"/>
      <point x="897" y="74"/>
      <point x="906" y="268" type="curve"/>
      <point x="906" y="275"/>
      <point x="906" y="287"/>
    </contour>
  </outline>
</glyph>
<glyph name="ety035_cid21677_H" format="1">
  <advance width="1000"/>
  <outline>
    <contour>
      <point x="812" y="262" type="line"/>
      <point x="559" y="262" type="line"/>
      <point x="559" y="137" type="line"/>
      <point x="812" y="137" type="line"/>
    </contour>
    <contour>
      <point x="905" y="261" type="curve"/>
      <point x="764" y="261" type="line"/>
      <point x="764" y="243" type="line"/>
      <point x="759" y="115"/>
      <point x="752" y="63"/>
      <point x="739" y="49" type="curve"/>
      <point x="730" y="40"/>
      <point x="720" y="38"/>
      <point x="706" y="38" type="curve"/>
      <point x="689" y="38"/>
      <point x="655" y="39"/>
      <point x="620" y="43" type="curve"/>
      <point x="642" y="7"/>
      <point x="658" y="-49"/>
      <point x="660" y="-91" type="curve"/>
      <point x="708" y="-92"/>
      <point x="753" y="-91"/>
      <point x="780" y="-86" type="curve"/>
      <point x="811" y="-82"/>
      <point x="836" y="-72"/>
      <point x="859" y="-45" type="curve"/>
      <point x="885" y="-15"/>
      <point x="895" y="60"/>
      <point x="903" y="211" type="curve"/>
      <point x="904" y="228"/>
      <point x="905" y="261"/>
    </contour>
  </outline>
</glyph>
<glyph name="ety036_cid22699_EL" format="1">
  <advance width="1000"/>
  <outline>
    <contour>
      <point x="894" y="672" type="line"/>
      <point x="505" y="672" type="line"/>
      <point x="493" y="643" type="line"/>
      <point x="894" y="643" type="line"/>
    </contour>
    <contour>
      <point x="904" y="673" type="curve"/>
      <point x="874" y="673" type="line"/>
      <point x="874" y="665" type="line"/>
      <point x="867" y="173"/>
      <point x="857" y="7"/>
      <point x="830" y="-26" type="curve"/>
      <point x="821" y="-39"/>
      <point x="812" y="-41"/>
      <point x="795" y="-41" type="curve"/>
      <point x="776" y="-41"/>
      <point x="724" y="-40"/>
      <point x="668" y="-36" type="curve"/>
      <point x="673" y="-44"/>
      <point x="675" y="-57"/>
      <point x="676" y="-66" type="curve"/>
      <point x="722" y="-69"/>
      <point x="771" y="-70"/>
      <point x="799" y="-70" type="curve"/>
      <point x="825" y="-69"/>
      <point x="843" y="-63"/>
      <point x="858" y="-43" type="curve"/>
      <point x="889" y="-1"/>
      <point x="896" y="150"/>
      <point x="904" y="650" type="curve"/>
      <point x="904" y="656"/>
      <point x="904" y="673"/>
    </contour>
  </outline>
</glyph>
<glyph name="ety037_cid23228_H" format="1">
  <advance width="1000"/>
  <outline>
    <contour>
      <point x="860" y="698" type="line"/>
      <point x="519" y="698" type="line"/>
      <point x="453" y="567" type="line"/>
      <point x="860" y="567" type="line"/>
    </contour>
    <contour>
      <point x="958" y="697" type="curve"/>
      <point x="811" y="697" type="line"/>
      <point x="811" y="666" type="line"/>
      <point x="805" y="262"/>
      <point x="797" y="101"/>
      <point x="771" y="69" type="curve"/>
      <point x="760" y="55"/>
      <point x="750" y="50"/>
      <point x="733" y="50" type="curve"/>
      <point x="709" y="50"/>
      <point x="664" y="50"/>
      <point x="614" y="54" type="curve"/>
      <point x="641" y="12"/>
      <point x="660" y="-54"/>
      <point x="662" y="-96" type="curve"/>
      <point x="717" y="-97"/>
      <point x="771" y="-97"/>
      <point x="807" y="-89" type="curve"/>
      <point x="848" y="-81"/>
      <point x="876" y="-68"/>
      <point x="905" y="-25" type="curve"/>
      <point x="941" y="28"/>
      <point x="949" y="190"/>
      <point x="957" y="630" type="curve"/>
      <point x="958" y="648"/>
      <point x="958" y="697"/>
    </contour>
  </outline>
</glyph>
<glyph name="ety038_cid23567_EL" format="1">
  <advance width="1000"/>
  <outline>
    <contour>
      <point x="879" y="787" type="line"/>
      <point x="367" y="787" type="line"/>
      <point x="367" y="755" type="line"/>
      <point x="879" y="755" type="line"/>
    </contour>
    <contour>
      <point x="900" y="783" type="curve"/>
      <point x="869" y="783" type="line"/>
      <point x="869" y="776" type="line"/>
      <point x="855" y="560"/>
      <point x="839" y="479"/>
      <point x="817" y="457" type="curve"/>
      <point x="809" y="449"/>
      <point x="800" y="447"/>
      <point x="780" y="448" type="curve"/>
      <point x="764" y="448"/>
      <point x="710" y="448"/>
      <point x="654" y="453" type="curve"/>
      <point x="659" y="445"/>
      <point x="662" y="433"/>
      <point x="663" y="425" type="curve"/>
      <point x="713" y="421"/>
      <point x="764" y="420"/>
      <point x="787" y="421" type="curve"/>
      <point x="813" y="421"/>
      <point x="827" y="425"/>
      <point x="840" y="438" type="curve"/>
      <point x="868" y="466"/>
      <point x="882" y="543"/>
      <point x="898" y="764" type="curve"/>
      <point x="899" y="770"/>
      <point x="900" y="783"/>
    </contour>
  </outline>
</glyph>
<glyph name="ety039_cid24153_H" format="1">
  <advance width="1000"/>
  <outline>
    <contour>
      <point x="522" y="242" type="line"/>
      <point x="382" y="242" type="line"/>
      <point x="360" y="133" type="line"/>
      <point x="522" y="133" type="line"/>
    </contour>
    <contour>
      <point x="604" y="243" type="curve"/>
      <point x="477" y="243" type="line"/>
      <point x="477" y="227" type="line"/>
      <point x="473" y="101"/>
      <point x="467" y="55"/>
      <point x="458" y="42" type="curve"/>
      <point x="451" y="34"/>
      <point x="444" y="32"/>
      <point x="434" y="32" type="curve"/>
      <point x="424" y="32"/>
      <point x="409" y="32"/>
      <point x="388" y="35" type="curve"/>
      <point x="405" y="4"/>
      <point x="416" y="-45"/>
      <point x="418" y="-81" type="curve"/>
      <point x="454" y="-82"/>
      <point x="486" y="-80"/>
      <point x="506" y="-76" type="curve"/>
      <point x="529" y="-72"/>
      <point x="548" y="-63"/>
      <point x="566" y="-41" type="curve"/>
      <point x="587" y="-14"/>
      <point x="596" y="55"/>
      <point x="602" y="199" type="curve"/>
      <point x="603" y="214"/>
      <point x="604" y="243"/>
    </contour>
  </outline>
</glyph>
<glyph name="ety040_cid27491_H" format="1">
  <advance width="1000"/>
  <outline>
    <contour>
      <point x="852" y="607" type="line"/>
      <point x="608" y="607" type="line"/>
      <point x="608" y="506" type="line"/>
      <point x="852" y="506" type="line"/>
    </contour>
    <contour>
      <point x="948" y="608" type="curve"/>
      <point x="821" y="608" type="line"/>
      <point x="821" y="589" type="line"/>
      <point x="818" y="410"/>
      <point x="814" y="346"/>
      <point x="803" y="330" type="curve"/>
      <point x="796" y="321"/>
      <point x="788" y="318"/>
      <point x="776" y="318" type="curve"/>
      <point x="762" y="318"/>
      <point x="738" y="319"/>
      <point x="709" y="322" type="curve"/>
      <point x="726" y="291"/>
      <point x="739" y="243"/>
      <point x="741" y="209" type="curve"/>
      <point x="783" y="208"/>
      <point x="821" y="209"/>
      <point x="845" y="213" type="curve"/>
      <point x="872" y="218"/>
      <point x="894" y="227"/>
      <point x="914" y="252" type="curve"/>
      <point x="936" y="282"/>
      <point x="942" y="365"/>
      <point x="947" y="563" type="curve"/>
      <point x="947" y="577"/>
      <point x="948" y="608"/>
    </contour>
  </outline>
</glyph>
<glyph name="ety041_cid33662_EL" format="1">
  <advance width="1000"/>
  <outline>
    <contour>
      <point x="877" y="212" type="curve"/>
      <point x="847" y="212" type="line"/>
      <point x="847" y="207" type="line"/>
      <point x="833" y="41"/>
      <point x="820" y="-22"/>
      <point x="797" y="-42" type="curve"/>
      <point x="787" y="-49"/>
      <point x="774" y="-50"/>
      <point x="742" y="-50" type="curve"/>
      <point x="716" y="-50"/>
      <point x="615" y="-49"/>
      <point x="515" y="-40" type="curve"/>
      <point x="522" y="-49"/>
      <point x="525" y="-60"/>
      <point x="526" y="-68" type="curve"/>
      <point x="623" y="-75"/>
      <point x="714" y="-77"/>
      <point x="752" y="-76" type="curve"/>
      <point x="787" y="-76"/>
      <point x="804" y="-72"/>
      <point x="820" y="-59" type="curve"/>
      <point x="848" y="-34"/>
      <point x="861" y="31"/>
      <point x="875" y="193" type="curve"/>
      <point x="876" y="199"/>
      <point x="877" y="212"/>
    </contour>
    <contour>
      <point x="856" y="211" type="line"/>
      <point x="167" y="211" type="line"/>
      <point x="158" y="181" type="line"/>
      <point x="856" y="181" type="line"/>
    </contour>
  </outline>
</glyph>
<glyph name="ety042_cid33816_H" format="1">
  <advance width="1000"/>
  <outline>
    <contour>
      <point x="776" y="597" type="line"/>
      <point x="82" y="597" type="line"/>
      <point x="82" y="472" type="line"/>
      <point x="776" y="472" type="line"/>
    </contour>
    <contour>
      <point x="893" y="598" type="curve"/>
      <point x="743" y="598" type="line"/>
      <point x="742" y="582" type="line"/>
      <point x="733" y="480"/>
      <point x="719" y="431"/>
      <point x="702" y="418" type="curve"/>
      <point x="692" y="410"/>
      <point x="681" y="409"/>
      <point x="665" y="409" type="curve"/>
      <point x="645" y="408"/>
      <point x="601" y="409"/>
      <point x="559" y="413" type="curve"/>
      <point x="582" y="380"/>
      <point x="598" y="329"/>
      <point x="600" y="292" type="curve"/>
      <point x="654" y="290"/>
      <point x="704" y="291"/>
      <point x="734" y="294" type="curve"/>
      <point x="770" y="298"/>
      <point x="799" y="306"/>
      <point x="826" y="331" type="curve"/>
      <point x="855" y="359"/>
      <point x="873" y="423"/>
      <point x="888" y="548" type="curve"/>
      <point x="891" y="565"/>
      <point x="893" y="598"/>
    </contour>
  </outline>
</glyph>
<glyph name="ety043_cid35249_H" format="1">
  <advance width="1000"/>
  <outline>
    <contour>
      <point x="823" y="623" type="line"/>
      <point x="435" y="623" type="line"/>
      <point x="435" y="519" type="line"/>
      <point x="823" y="519" type="line"/>
    </contour>
    <contour>
      <point x="922" y="624" type="curve"/>
      <point x="788" y="624" type="line"/>
      <point x="788" y="610" type="line"/>
      <point x="784" y="535"/>
      <point x="777" y="504"/>
      <point x="768" y="493" type="curve"/>
      <point x="761" y="486"/>
      <point x="755" y="485"/>
      <point x="744" y="485" type="curve"/>
      <point x="732" y="485"/>
      <point x="709" y="485"/>
      <point x="682" y="488" type="curve"/>
      <point x="694" y="467"/>
      <point x="705" y="432"/>
      <point x="706" y="410" type="curve"/>
      <point x="750" y="407"/>
      <point x="790" y="408"/>
      <point x="814" y="410" type="curve"/>
      <point x="838" y="411"/>
      <point x="865" y="418"/>
      <point x="883" y="437" type="curve"/>
      <point x="903" y="458"/>
      <point x="913" y="499"/>
      <point x="919" y="587" type="curve"/>
      <point x="921" y="600"/>
      <point x="922" y="624"/>
    </contour>
  </outline>
</glyph>
<glyph name="ety044_cid35400_EL" format="1">
  <advance width="1000"/>
  <outline>
    <contour>
      <point x="908" y="206" type="line"/>
      <point x="462" y="206" type="line"/>
      <point x="462" y="177" type="line"/>
      <point x="908" y="177" type="line"/>
    </contour>
    <contour>
      <point x="927" y="204" type="curve"/>
      <point x="897" y="204" type="line"/>
      <point x="897" y="198" type="line"/>
      <point x="886" y="42"/>
      <point x="874" y="-16"/>
      <point x="858" y="-32" type="curve"/>
      <point x="852" y="-39"/>
      <point x="844" y="-40"/>
      <point x="829" y="-40" type="curve"/>
      <point x="816" y="-40"/>
      <point x="774" y="-39"/>
      <point x="731" y="-35" type="curve"/>
      <point x="736" y="-44"/>
      <point x="739" y="-56"/>
      <point x="740" y="-64" type="curve"/>
      <point x="778" y="-66"/>
      <point x="817" y="-67"/>
      <point x="835" y="-67" type="curve"/>
      <point x="858" y="-66"/>
      <point x="869" y="-63"/>
      <point x="881" y="-51" type="curve"/>
      <point x="902" y="-30"/>
      <point x="914" y="27"/>
      <point x="925" y="185" type="curve"/>
      <point x="926" y="191"/>
      <point x="927" y="204"/>
    </contour>
  </outline>
</glyph>
<glyph name="ety045_cid38301_H" format="1">
  <advance width="1000"/>
  <outline>
    <contour>
      <point x="427" y="510" type="line"/>
      <point x="215" y="510" type="line"/>
      <point x="215" y="456" type="line"/>
      <point x="427" y="456" type="line"/>
    </contour>
    <contour>
      <point x="510" y="511" type="curve"/>
      <point x="391" y="511" type="line"/>
      <point x="391" y="500" type="line"/>
      <point x="387" y="466"/>
      <point x="383" y="449"/>
      <point x="375" y="441" type="curve"/>
      <point x="367" y="436"/>
      <point x="360" y="435"/>
      <point x="346" y="435" type="curve"/>
      <point x="331" y="435"/>
      <point x="294" y="435"/>
      <point x="255" y="439" type="curve"/>
      <point x="266" y="421"/>
      <point x="275" y="392"/>
      <point x="276" y="374" type="curve"/>
      <point x="325" y="371"/>
      <point x="372" y="371"/>
      <point x="398" y="372" type="curve"/>
      <point x="426" y="372"/>
      <point x="454" y="377"/>
      <point x="473" y="391" type="curve"/>
      <point x="492" y="406"/>
      <point x="501" y="433"/>
      <point x="507" y="477" type="curve"/>
      <point x="508" y="489"/>
      <point x="510" y="511"/>
    </contour>
  </outline>
</glyph>
<glyph name="ety046_cid38637_EL" format="1">
  <advance width="1000"/>
  <outline>
    <contour>
      <point x="915" y="305" type="line"/>
      <point x="548" y="305" type="line"/>
      <point x="542" y="276" type="line"/>
      <point x="915" y="276" type="line"/>
    </contour>
    <contour>
      <point x="932" y="304" type="curve"/>
      <point x="902" y="304" type="line"/>
      <point x="902" y="297" type="line"/>
      <point x="893" y="131"/>
      <point x="883" y="70"/>
      <point x="869" y="53" type="curve"/>
      <point x="864" y="46"/>
      <point x="857" y="45"/>
      <point x="844" y="45" type="curve"/>
      <point x="833" y="45"/>
      <point x="801" y="46"/>
      <point x="767" y="49" type="curve"/>
      <point x="771" y="40"/>
      <point x="774" y="29"/>
      <point x="774" y="20" type="curve"/>
      <point x="804" y="18"/>
      <point x="835" y="17"/>
      <point x="851" y="18" type="curve"/>
      <point x="871" y="18"/>
      <point x="883" y="23"/>
      <point x="894" y="33" type="curve"/>
      <point x="913" y="55"/>
      <point x="921" y="113"/>
      <point x="931" y="284" type="curve"/>
      <point x="932" y="291"/>
      <point x="932" y="304"/>
    </contour>
  </outline>
</glyph>
<glyph name="ety047_cid39091_H" format="1">
  <advance width="1000"/>
  <outline>
    <contour>
      <point x="889" y="773" type="line"/>
      <point x="546" y="773" type="line"/>
      <point x="546" y="653" type="line"/>
      <point x="889" y="653" type="line"/>
    </contour>
    <contour>
      <point x="941" y="772" type="curve"/>
      <point x="812" y="772" type="line"/>
      <point x="812" y="743" type="line"/>
      <point x="808" y="379"/>
      <point x="802" y="237"/>
      <point x="783" y="208" type="curve"/>
      <point x="774" y="194"/>
      <point x="765" y="190"/>
      <point x="747" y="190" type="curve"/>
      <point x="726" y="190"/>
      <point x="686" y="190"/>
      <point x="639" y="195" type="curve"/>
      <point x="654" y="164"/>
      <point x="668" y="114"/>
      <point x="669" y="83" type="curve"/>
      <point x="721" y="80"/>
      <point x="775" y="79"/>
      <point x="809" y="85" type="curve"/>
      <point x="845" y="90"/>
      <point x="874" y="103"/>
      <point x="897" y="141" type="curve"/>
      <point x="925" y="188"/>
      <point x="935" y="319"/>
      <point x="941" y="709" type="curve"/>
      <point x="941" y="727"/>
      <point x="941" y="772"/>
    </contour>
  </outline>
</glyph>
<glyph name="ety048_cid39143_H" format="1">
  <advance width="1000"/>
  <outline>
    <contour>
      <point x="835" y="760" type="line"/>
      <point x="510" y="760" type="line"/>
      <point x="510" y="640" type="line"/>
      <point x="835" y="640" type="line"/>
    </contour>
    <contour>
      <point x="939" y="758" type="curve"/>
      <point x="800" y="758" type="line"/>
      <point x="800" y="727" type="line"/>
      <point x="800" y="359"/>
      <point x="802" y="238"/>
      <point x="789" y="213" type="curve"/>
      <point x="782" y="199"/>
      <point x="774" y="194"/>
      <point x="762" y="194" type="curve"/>
      <point x="746" y="194"/>
      <point x="725" y="194"/>
      <point x="699" y="197" type="curve"/>
      <point x="717" y="164"/>
      <point x="732" y="111"/>
      <point x="733" y="76" type="curve"/>
      <point x="776" y="75"/>
      <point x="815" y="76"/>
      <point x="843" y="83" type="curve"/>
      <point x="873" y="90"/>
      <point x="895" y="102"/>
      <point x="915" y="137" type="curve"/>
      <point x="938" y="178"/>
      <point x="938" y="310"/>
      <point x="939" y="699" type="curve"/>
      <point x="939" y="715"/>
      <point x="939" y="758"/>
    </contour>
  </outline>
</glyph>
<glyph name="ety049_cid42755_H" format="1">
  <advance width="1000"/>
  <outline>
    <contour>
      <point x="889" y="818" type="line"/>
      <point x="659" y="818" type="line"/>
      <point x="659" y="697" type="line"/>
      <point x="889" y="697" type="line"/>
    </contour>
    <contour>
      <point x="953" y="820" type="curve"/>
      <point x="839" y="820" type="line"/>
      <point x="839" y="800" type="line"/>
      <point x="835" y="570"/>
      <point x="830" y="494"/>
      <point x="820" y="476" type="curve"/>
      <point x="813" y="465"/>
      <point x="807" y="462"/>
      <point x="798" y="463" type="curve"/>
      <point x="788" y="463"/>
      <point x="779" y="463"/>
      <point x="764" y="465" type="curve"/>
      <point x="779" y="435"/>
      <point x="788" y="388"/>
      <point x="790" y="353" type="curve"/>
      <point x="820" y="353"/>
      <point x="846" y="354"/>
      <point x="864" y="359" type="curve"/>
      <point x="887" y="364"/>
      <point x="903" y="374"/>
      <point x="919" y="398" type="curve"/>
      <point x="940" y="429"/>
      <point x="946" y="528"/>
      <point x="952" y="775" type="curve"/>
      <point x="953" y="789"/>
      <point x="953" y="820"/>
    </contour>
  </outline>
</glyph>
<glyph name="ety050_cid44652_H" format="1">
  <advance width="1000"/>
  <outline>
    <contour>
      <point x="860" y="440" type="line"/>
      <point x="421" y="440" type="line"/>
      <point x="421" y="312" type="line"/>
      <point x="860" y="312" type="line"/>
    </contour>
    <contour>
      <point x="947" y="439" type="curve"/>
      <point x="808" y="439" type="line"/>
      <point x="808" y="416" type="line"/>
      <point x="803" y="169"/>
      <point x="798" y="75"/>
      <point x="781" y="54" type="curve"/>
      <point x="772" y="43"/>
      <point x="762" y="40"/>
      <point x="747" y="40" type="curve"/>
      <point x="727" y="40"/>
      <point x="691" y="41"/>
      <point x="651" y="44" type="curve"/>
      <point x="673" y="8"/>
      <point x="690" y="-48"/>
      <point x="692" y="-88" type="curve"/>
      <point x="742" y="-89"/>
      <point x="789" y="-89"/>
      <point x="820" y="-83" type="curve"/>
      <point x="854" y="-77"/>
      <point x="880" y="-67"/>
      <point x="904" y="-34" type="curve"/>
      <point x="932" y="4"/>
      <point x="940" y="113"/>
      <point x="946" y="385" type="curve"/>
      <point x="947" y="401"/>
      <point x="947" y="439"/>
    </contour>
  </outline>
</glyph>
<glyph name="ety051_cid45073_H" format="1">
  <advance width="1000"/>
  <outline>
    <contour>
      <point x="414" y="393" type="curve"/>
      <point x="291" y="393" type="line"/>
      <point x="291" y="373" type="line"/>
      <point x="283" y="147"/>
      <point x="272" y="58"/>
      <point x="254" y="37" type="curve"/>
      <point x="244" y="26"/>
      <point x="235" y="24"/>
      <point x="219" y="24" type="curve"/>
      <point x="200" y="24"/>
      <point x="161" y="25"/>
      <point x="119" y="29" type="curve"/>
      <point x="139" y="-3"/>
      <point x="153" y="-51"/>
      <point x="155" y="-86" type="curve"/>
      <point x="203" y="-87"/>
      <point x="250" y="-87"/>
      <point x="278" y="-83" type="curve"/>
      <point x="312" y="-78"/>
      <point x="337" y="-69"/>
      <point x="360" y="-40" type="curve"/>
      <point x="390" y="-4"/>
      <point x="402" y="96"/>
      <point x="412" y="344" type="curve"/>
      <point x="413" y="359"/>
      <point x="414" y="393"/>
    </contour>
    <contour>
      <point x="314" y="392" type="line"/>
      <point x="85" y="392" type="line"/>
      <point x="85" y="281" type="line"/>
      <point x="314" y="281" type="line"/>
    </contour>
  </outline>
</glyph>
<glyph name="ety052_cid45075_H" format="1">
  <advance width="1000"/>
  <outline>
    <contour>
      <point x="437" y="383" type="curve"/>
      <point x="314" y="383" type="line"/>
      <point x="314" y="363" type="line"/>
      <point x="306" y="137"/>
      <point x="295" y="48"/>
      <point x="277" y="27" type="curve"/>
      <point x="267" y="16"/>
      <point x="258" y="14"/>
      <point x="242" y="14" type="curve"/>
      <point x="223" y="14"/>
      <point x="184" y="15"/>
      <point x="142" y="19" type="curve"/>
      <point x="162" y="-13"/>
      <point x="176" y="-61"/>
      <point x="178" y="-96" type="curve"/>
      <point x="226" y="-97"/>
      <point x="273" y="-97"/>
      <point x="301" y="-93" type="curve"/>
      <point x="335" y="-88"/>
      <point x="360" y="-79"/>
      <point x="383" y="-50" type="curve"/>
      <point x="413" y="-14"/>
      <point x="425" y="86"/>
      <point x="435" y="334" type="curve"/>
      <point x="436" y="349"/>
      <point x="437" y="383"/>
    </contour>
    <contour>
      <point x="321" y="382" type="line"/>
      <point x="91" y="382" type="line"/>
      <point x="91" y="271" type="line"/>
      <point x="321" y="271" type="line"/>
    </contour>
  </outline>
</glyph>
<glyph name="ety053_cid45096_H" format="1">
  <advance width="1000"/>
  <outline>
    <contour>
      <point x="416" y="391" type="curve"/>
      <point x="293" y="391" type="line"/>
      <point x="293" y="371" type="line"/>
      <point x="285" y="143"/>
      <point x="274" y="52"/>
      <point x="256" y="31" type="curve"/>
      <point x="246" y="21"/>
      <point x="236" y="18"/>
      <point x="221" y="18" type="curve"/>
      <point x="201" y="18"/>
      <point x="162" y="19"/>
      <point x="121" y="23" type="curve"/>
      <point x="140" y="-9"/>
      <point x="155" y="-57"/>
      <point x="157" y="-92" type="curve"/>
      <point x="205" y="-93"/>
      <point x="251" y="-93"/>
      <point x="280" y="-88" type="curve"/>
      <point x="314" y="-84"/>
      <point x="339" y="-74"/>
      <point x="362" y="-46" type="curve"/>
      <point x="391" y="-10"/>
      <point x="404" y="91"/>
      <point x="414" y="342" type="curve"/>
      <point x="415" y="357"/>
      <point x="416" y="391"/>
    </contour>
    <contour>
      <point x="306" y="392" type="line"/>
      <point x="76" y="392" type="line"/>
      <point x="76" y="281" type="line"/>
      <point x="306" y="281" type="line"/>
    </contour>
  </outline>
</glyph>
<glyph name="ety054_cid45100_H" format="1">
  <advance width="1000"/>
  <outline>
    <contour>
      <point x="430" y="393" type="curve"/>
      <point x="307" y="393" type="line"/>
      <point x="307" y="373" type="line"/>
      <point x="299" y="147"/>
      <point x="288" y="58"/>
      <point x="270" y="37" type="curve"/>
      <point x="260" y="26"/>
      <point x="251" y="24"/>
      <point x="235" y="24" type="curve"/>
      <point x="216" y="24"/>
      <point x="177" y="25"/>
      <point x="135" y="29" type="curve"/>
      <point x="155" y="-3"/>
      <point x="169" y="-51"/>
      <point x="171" y="-86" type="curve"/>
      <point x="219" y="-87"/>
      <point x="266" y="-87"/>
      <point x="294" y="-83" type="curve"/>
      <point x="328" y="-78"/>
      <point x="353" y="-69"/>
      <point x="376" y="-40" type="curve"/>
      <point x="406" y="-4"/>
      <point x="418" y="96"/>
      <point x="428" y="344" type="curve"/>
      <point x="429" y="359"/>
      <point x="430" y="393"/>
    </contour>
    <contour>
      <point x="319" y="392" type="line"/>
      <point x="89" y="392" type="line"/>
      <point x="89" y="281" type="line"/>
      <point x="319" y="281" type="line"/>
    </contour>
  </outline>
</glyph>
<glyph name="ety055_cid45364_H" format="1">
  <advance width="1000"/>
  <outline>
    <contour>
      <point x="619" y="173" type="line"/>
      <point x="330" y="173" type="line"/>
      <point x="330" y="98" type="line"/>
      <point x="619" y="98" type="line"/>
    </contour>
    <contour>
      <point x="727" y="172" type="curve"/>
      <point x="602" y="172" type="line"/>
      <point x="602" y="159" type="line"/>
      <point x="599" y="111"/>
      <point x="595" y="88"/>
      <point x="584" y="80" type="curve"/>
      <point x="576" y="74"/>
      <point x="566" y="73"/>
      <point x="545" y="73" type="curve"/>
      <point x="524" y="73"/>
      <point x="465" y="73"/>
      <point x="404" y="78" type="curve"/>
      <point x="417" y="59"/>
      <point x="427" y="28"/>
      <point x="428" y="10" type="curve"/>
      <point x="490" y="7"/>
      <point x="553" y="6"/>
      <point x="589" y="8" type="curve"/>
      <point x="626" y="8"/>
      <point x="663" y="13"/>
      <point x="687" y="28" type="curve"/>
      <point x="710" y="45"/>
      <point x="721" y="76"/>
      <point x="725" y="135" type="curve"/>
      <point x="726" y="148"/>
      <point x="727" y="172"/>
    </contour>
  </outline>
</glyph>
<glyph name="ety056_cid45691_EL" format="1">
  <advance width="1000"/>
  <outline>
    <contour>
      <point x="910" y="305" type="line"/>
      <point x="490" y="305" type="line"/>
      <point x="484" y="276" type="line"/>
      <point x="910" y="276" type="line"/>
    </contour>
    <contour>
      <point x="930" y="304" type="curve"/>
      <point x="900" y="304" type="line"/>
      <point x="900" y="297" type="line"/>
      <point x="891" y="131"/>
      <point x="881" y="70"/>
      <point x="868" y="53" type="curve"/>
      <point x="862" y="46"/>
      <point x="855" y="45"/>
      <point x="842" y="45" type="curve"/>
      <point x="831" y="45"/>
      <point x="799" y="46"/>
      <point x="765" y="49" type="curve"/>
      <point x="770" y="40"/>
      <point x="772" y="29"/>
      <point x="772" y="20" type="curve"/>
      <point x="802" y="18"/>
      <point x="833" y="17"/>
      <point x="849" y="18" type="curve"/>
      <point x="869" y="18"/>
      <point x="881" y="23"/>
      <point x="892" y="33" type="curve"/>
      <point x="911" y="55"/>
      <point x="919" y="113"/>
      <point x="929" y="284" type="curve"/>
      <point x="930" y="291"/>
      <point x="930" y="304"/>
    </contour>
  </outline>
</glyph>
<glyph name="ety057_cid46133_H" format="1">
  <advance width="1000"/>
  <outline>
    <contour>
      <point x="921" y="664" type="line"/>
      <point x="682" y="664" type="line"/>
      <point x="682" y="545" type="line"/>
      <point x="921" y="545" type="line"/>
    </contour>
    <contour>
      <point x="966" y="665" type="curve"/>
      <point x="862" y="665" type="line"/>
      <point x="862" y="638" type="line"/>
      <point x="859" y="213"/>
      <point x="857" y="77"/>
      <point x="844" y="49" type="curve"/>
      <point x="837" y="34"/>
      <point x="830" y="30"/>
      <point x="819" y="30" type="curve"/>
      <point x="806" y="30"/>
      <point x="789" y="30"/>
      <point x="768" y="32" type="curve"/>
      <point x="784" y="2"/>
      <point x="794" y="-44"/>
      <point x="796" y="-75" type="curve"/>
      <point x="828" y="-76"/>
      <point x="855" y="-76"/>
      <point x="878" y="-70" type="curve"/>
      <point x="903" y="-64"/>
      <point x="920" y="-53"/>
      <point x="938" y="-23" type="curve"/>
      <point x="961" y="17"/>
      <point x="962" y="171"/>
      <point x="965" y="614" type="curve"/>
      <point x="966" y="628"/>
      <point x="966" y="665"/>
    </contour>
  </outline>
</glyph>
<glyph name="ety058_cid46621_H" format="1">
  <advance width="1000"/>
  <outline>
    <contour>
      <point x="344" y="287" type="line"/>
      <point x="60" y="287" type="line"/>
      <point x="60" y="185" type="line"/>
      <point x="344" y="185" type="line"/>
    </contour>
    <contour>
      <point x="387" y="288" type="curve"/>
      <point x="289" y="288" type="line"/>
      <point x="289" y="272" type="line"/>
      <point x="285" y="83"/>
      <point x="281" y="17"/>
      <point x="271" y="2" type="curve"/>
      <point x="265" y="-8"/>
      <point x="258" y="-9"/>
      <point x="248" y="-9" type="curve"/>
      <point x="236" y="-9"/>
      <point x="218" y="-9"/>
      <point x="194" y="-7" type="curve"/>
      <point x="207" y="-30"/>
      <point x="216" y="-66"/>
      <point x="218" y="-92" type="curve"/>
      <point x="249" y="-93"/>
      <point x="280" y="-93"/>
      <point x="299" y="-89" type="curve"/>
      <point x="322" y="-86"/>
      <point x="340" y="-78"/>
      <point x="356" y="-57" type="curve"/>
      <point x="376" y="-30"/>
      <point x="381" y="47"/>
      <point x="386" y="251" type="curve"/>
      <point x="387" y="263"/>
      <point x="387" y="288"/>
    </contour>
  </outline>
</glyph>
<glyph name="ety059_cid46730_EL" format="1">
  <advance width="1000"/>
  <outline>
    <contour>
      <point x="453" y="305" type="line"/>
      <point x="86" y="305" type="line"/>
      <point x="81" y="276" type="line"/>
      <point x="453" y="276" type="line"/>
    </contour>
    <contour>
      <point x="476" y="304" type="curve"/>
      <point x="446" y="304" type="line"/>
      <point x="446" y="297" type="line"/>
      <point x="438" y="158"/>
      <point x="430" y="107"/>
      <point x="419" y="93" type="curve"/>
      <point x="414" y="86"/>
      <point x="407" y="85"/>
      <point x="395" y="85" type="curve"/>
      <point x="384" y="85"/>
      <point x="353" y="86"/>
      <point x="319" y="89" type="curve"/>
      <point x="324" y="81"/>
      <point x="327" y="69"/>
      <point x="328" y="60" type="curve"/>
      <point x="355" y="58"/>
      <point x="386" y="58"/>
      <point x="401" y="58" type="curve"/>
      <point x="422" y="58"/>
      <point x="433" y="63"/>
      <point x="443" y="73" type="curve"/>
      <point x="460" y="91"/>
      <point x="468" y="141"/>
      <point x="476" y="285" type="curve"/>
      <point x="476" y="291"/>
      <point x="476" y="304"/>
    </contour>
  </outline>
</glyph>
<glyph name="ety060_cid47554_H" format="1">
  <advance width="1000"/>
  <outline>
    <contour>
      <point x="464" y="262" type="line"/>
      <point x="328" y="262" type="line"/>
      <point x="328" y="157" type="line"/>
      <point x="464" y="157" type="line"/>
    </contour>
    <contour>
      <point x="502" y="261" type="curve"/>
      <point x="414" y="261" type="line"/>
      <point x="414" y="247" type="line"/>
      <point x="411" y="87"/>
      <point x="407" y="32"/>
      <point x="399" y="19" type="curve"/>
      <point x="393" y="10"/>
      <point x="387" y="8"/>
      <point x="378" y="8" type="curve"/>
      <point x="369" y="9"/>
      <point x="356" y="9"/>
      <point x="337" y="11" type="curve"/>
      <point x="350" y="-14"/>
      <point x="358" y="-54"/>
      <point x="360" y="-84" type="curve"/>
      <point x="385" y="-84"/>
      <point x="409" y="-83"/>
      <point x="424" y="-80" type="curve"/>
      <point x="446" y="-76"/>
      <point x="459" y="-68"/>
      <point x="473" y="-50" type="curve"/>
      <point x="491" y="-26"/>
      <point x="496" y="52"/>
      <point x="500" y="225" type="curve"/>
      <point x="501" y="237"/>
      <point x="502" y="261"/>
    </contour>
  </outline>
</glyph>
<glyph name="ety061_cid61198_H" format="1">
  <advance width="1000"/>
  <outline>
    <contour>
      <point x="890" y="366" type="line"/>
      <point x="558" y="366" type="line"/>
      <point x="558" y="268" type="line"/>
      <point x="890" y="268" type="line"/>
    </contour>
    <contour>
      <point x="970" y="365" type="curve"/>
      <point x="859" y="365" type="line"/>
      <point x="859" y="350" type="line"/>
      <point x="853" y="220"/>
      <point x="844" y="171"/>
      <point x="834" y="157" type="curve"/>
      <point x="827" y="149"/>
      <point x="821" y="147"/>
      <point x="811" y="147" type="curve"/>
      <point x="801" y="147"/>
      <point x="784" y="148"/>
      <point x="764" y="150" type="curve"/>
      <point x="778" y="124"/>
      <point x="788" y="82"/>
      <point x="789" y="52" type="curve"/>
      <point x="822" y="51"/>
      <point x="852" y="52"/>
      <point x="871" y="55" type="curve"/>
      <point x="892" y="59"/>
      <point x="911" y="67"/>
      <point x="927" y="88" type="curve"/>
      <point x="948" y="113"/>
      <point x="958" y="178"/>
      <point x="967" y="324" type="curve"/>
      <point x="969" y="338"/>
      <point x="970" y="365"/>
    </contour>
  </outline>
</glyph>
<glyph name="ety062_cid62496_EL" format="1">
  <advance width="1000"/>
  <outline>
    <contour>
      <point x="907" y="771" type="line"/>
      <point x="632" y="771" type="line"/>
      <point x="632" y="742" type="line"/>
      <point x="907" y="742" type="line"/>
    </contour>
    <contour>
      <point x="924" y="772" type="curve"/>
      <point x="895" y="772" type="line"/>
      <point x="895" y="766" type="line"/>
      <point x="888" y="571"/>
      <point x="881" y="502"/>
      <point x="868" y="485" type="curve"/>
      <point x="862" y="478"/>
      <point x="855" y="477"/>
      <point x="842" y="477" type="curve"/>
      <point x="830" y="477"/>
      <point x="795" y="477"/>
      <point x="757" y="480" type="curve"/>
      <point x="762" y="473"/>
      <point x="765" y="461"/>
      <point x="766" y="452" type="curve"/>
      <point x="797" y="450"/>
      <point x="831" y="449"/>
      <point x="848" y="450" type="curve"/>
      <point x="869" y="450"/>
      <point x="881" y="455"/>
      <point x="892" y="467" type="curve"/>
      <point x="910" y="489"/>
      <point x="917" y="553"/>
      <point x="924" y="753" type="curve"/>
      <point x="924" y="760"/>
      <point x="924" y="772"/>
    </contour>
  </outline>
</glyph>
